<svg version="1.1" xmlns="http://www.w3.org/2000/svg" viewBox="0 0 53.3876423879924 51.06219266778862" width="53.3876423879924" height="51.06219266778862">
  <metadata></metadata>
  <defs>
    <style class="style-fonts"></style>
  </defs>
  <g stroke-linecap="round" transform="translate(10 10) rotate(0 16.6938211939962 12.599091019714479)">
    <path d="M15.86 0.35 C19.17 0.06, 24.09 0.99, 26.89 2.55 C29.69 4.1, 31.96 6.96, 32.66 9.7 C33.35 12.43, 32.78 16.58, 31.08 18.95 C29.38 21.32, 25.75 22.99, 22.45 23.93 C19.16 24.87, 14.67 25.42, 11.32 24.59 C7.98 23.77, 4.23 21.38, 2.37 18.98 C0.51 16.59, -0.44 12.91, 0.17 10.23 C0.78 7.54, 3.17 4.57, 6.02 2.86 C8.87 1.15, 15.31 0.36, 17.26 -0.04 C19.22 -0.43, 17.89 0.29, 17.74 0.5 M17.46 0.54 C20.66 0.6, 25.04 1.32, 27.62 3.21 C30.21 5.11, 32.44 9.2, 32.98 11.93 C33.52 14.67, 32.95 17.47, 30.87 19.64 C28.79 21.82, 24.13 24.25, 20.51 24.99 C16.88 25.72, 12.14 25.11, 9.11 24.05 C6.08 22.99, 3.69 21.15, 2.33 18.63 C0.98 16.1, 0.25 11.62, 0.99 8.93 C1.73 6.23, 3.91 3.86, 6.77 2.46 C9.64 1.06, 16.22 0.85, 18.18 0.53 C20.14 0.22, 18.68 0.51, 18.51 0.56" stroke="#1e1e1e" stroke-width="2" fill="none"></path>
  </g>
  <g transform="translate(12.869340869202688 30.076448153036836) rotate(0 4.779510612404806 5.492872257375893)" stroke="none">
    <path fill="#1e1e1e" d="M 1.22,0 Q 1.22,0 1.21,0.82 1.19,1.64 1.18,2.44 1.17,3.24 1.12,4.10 1.06,4.96 1.01,5.66 0.97,6.36 0.87,7.07 0.77,7.77 0.69,8.57 0.62,9.36 0.59,9.91 0.56,10.46 0.02,10.07 -0.52,9.68 -1.11,9.73 -1.70,9.78 -1.26,9.24 -0.81,8.70 -0.09,8.25 0.63,7.80 1.64,7.52 2.66,7.23 3.65,7.06 4.64,6.88 5.32,6.69 5.99,6.50 6.63,6.35 7.26,6.19 8.46,5.34 9.67,4.48 9.86,4.39 10.05,4.30 10.26,4.27 10.47,4.25 10.68,4.29 10.89,4.34 11.07,4.45 11.25,4.55 11.39,4.71 11.53,4.88 11.61,5.07 11.69,5.27 11.70,5.48 11.72,5.69 11.66,5.90 11.60,6.10 11.49,6.28 11.37,6.46 11.20,6.59 11.03,6.71 10.83,6.78 10.63,6.85 10.42,6.85 10.21,6.86 10.00,6.79 9.80,6.72 9.63,6.59 9.46,6.47 9.34,6.29 9.22,6.12 9.16,5.91 9.11,5.71 9.12,5.50 9.13,5.29 9.20,5.09 9.28,4.89 9.42,4.73 9.55,4.56 9.74,4.45 9.92,4.34 10.12,4.30 10.33,4.25 10.54,4.27 10.75,4.29 10.95,4.38 11.14,4.47 11.29,4.61 11.45,4.76 11.55,4.95 11.65,5.13 11.69,5.34 11.72,5.55 11.69,5.76 11.66,5.97 11.56,6.16 11.46,6.35 11.31,6.49 11.15,6.64 11.15,6.64 11.15,6.64 9.49,7.69 7.82,8.74 7.27,8.85 6.73,8.96 5.98,9.19 5.23,9.42 4.41,9.67 3.59,9.92 2.85,10.24 2.12,10.55 1.38,11.07 0.65,11.58 -0.18,11.83 -1.02,12.07 -1.63,11.14 -2.24,10.20 -2.09,9.63 -1.94,9.06 -1.77,8.23 -1.59,7.39 -1.48,6.78 -1.36,6.16 -1.30,5.50 -1.23,4.84 -1.20,4.04 -1.17,3.24 -1.18,2.44 -1.19,1.64 -1.21,0.82 -1.22,0 -1.21,-0.14 -1.19,-0.29 -1.14,-0.43 -1.08,-0.57 -1.08,-0.57 -1.00,-0.69 -0.91,-0.81 -0.80,-0.91 -0.69,-1.01 -0.56,-1.07 -0.43,-1.14 -0.29,-1.18 -0.14,-1.21 0.00,-1.21 0.14,-1.21 0.29,-1.18 0.43,-1.14 0.56,-1.07 0.69,-1.01 0.80,-0.91 0.91,-0.81 1.00,-0.69 1.08,-0.57 1.14,-0.43 1.19,-0.29 1.21,-0.14 1.22,0.00 1.22,0.00 L 1.22,0 Z"></path>
  </g>
  <g transform="translate(18.43354471937505 22.657511863140826) rotate(0 0.00004999999998744897 0.00004999999998744897)" stroke="none">
    <path fill="#1e1e1e" d="M 1.57,-1.57 Q 1.57,-1.57 1.77,-1.27 1.98,-0.98 2.09,-0.64 2.20,-0.29 2.19,0.05 2.18,0.41 2.05,0.75 1.93,1.09 1.70,1.37 1.48,1.65 1.18,1.84 0.87,2.04 0.52,2.12 0.18,2.21 -0.17,2.18 -0.53,2.15 -0.86,2.01 -1.19,1.87 -1.46,1.63 -1.73,1.39 -1.90,1.07 -2.08,0.76 -2.15,0.41 -2.21,0.05 -2.17,-0.29 -2.12,-0.65 -1.96,-0.97 -1.80,-1.29 -1.54,-1.54 -1.29,-1.80 -0.97,-1.96 -0.65,-2.12 -0.29,-2.17 0.06,-2.21 0.41,-2.15 0.76,-2.08 1.07,-1.90 1.39,-1.73 1.63,-1.46 1.87,-1.19 2.01,-0.86 2.15,-0.53 2.18,-0.17 2.21,0.20 2.12,0.52 2.03,0.87 1.84,1.18 1.65,1.48 1.37,1.70 1.09,1.93 0.75,2.05 0.41,2.18 0.05,2.19 -0.30,2.20 -0.64,2.09 -0.98,1.98 -1.27,1.77 -1.57,1.56 -1.57,1.57 -1.57,1.57 -1.73,1.35 -1.90,1.14 -2.01,0.90 -2.12,0.66 -2.16,0.39 -2.21,0.13 -2.20,-0.13 -2.18,-0.40 -2.10,-0.65 -2.02,-0.91 -1.88,-1.14 -1.74,-1.36 -1.55,-1.55 -1.36,-1.74 -1.14,-1.88 -0.91,-2.02 -0.65,-2.10 -0.40,-2.18 -0.13,-2.20 0.13,-2.21 0.39,-2.16 0.66,-2.12 0.90,-2.01 1.14,-1.90 1.35,-1.73 1.57,-1.57 1.57,-1.57 L 1.57,-1.57 Z"></path>
  </g>
  <g transform="translate(26.70850583983497 22.657511863140826) rotate(0 0.00004999999998744897 0.00004999999998744897)" stroke="none">
    <path fill="#1e1e1e" d="M 1.57,-1.57 Q 1.57,-1.57 1.77,-1.27 1.98,-0.98 2.09,-0.64 2.20,-0.29 2.19,0.05 2.18,0.41 2.05,0.75 1.93,1.09 1.70,1.37 1.48,1.65 1.18,1.84 0.87,2.04 0.52,2.12 0.18,2.21 -0.17,2.18 -0.53,2.15 -0.86,2.01 -1.19,1.87 -1.46,1.63 -1.73,1.39 -1.90,1.07 -2.08,0.76 -2.15,0.41 -2.21,0.05 -2.17,-0.29 -2.12,-0.65 -1.96,-0.97 -1.80,-1.29 -1.54,-1.54 -1.29,-1.80 -0.97,-1.96 -0.65,-2.12 -0.29,-2.17 0.06,-2.21 0.41,-2.15 0.76,-2.08 1.07,-1.90 1.39,-1.73 1.63,-1.46 1.87,-1.19 2.01,-0.86 2.15,-0.53 2.18,-0.17 2.21,0.18 2.12,0.52 2.03,0.87 1.84,1.18 1.65,1.48 1.37,1.70 1.09,1.93 0.75,2.05 0.41,2.18 0.05,2.19 -0.30,2.20 -0.64,2.09 -0.98,1.98 -1.27,1.77 -1.57,1.56 -1.57,1.57 -1.57,1.57 -1.73,1.35 -1.90,1.14 -2.01,0.90 -2.12,0.66 -2.16,0.39 -2.21,0.13 -2.20,-0.13 -2.18,-0.40 -2.10,-0.65 -2.02,-0.91 -1.88,-1.14 -1.74,-1.36 -1.55,-1.55 -1.36,-1.74 -1.14,-1.88 -0.91,-2.02 -0.65,-2.10 -0.40,-2.18 -0.13,-2.20 0.13,-2.21 0.39,-2.16 0.66,-2.12 0.90,-2.01 1.14,-1.90 1.35,-1.73 1.57,-1.57 1.57,-1.57 L 1.57,-1.57 Z"></path>
  </g>
  <g transform="translate(34.41278809391952 22.800181579734726) rotate(0 0.00004999999998744897 0.00004999999998744897)" stroke="none">
    <path fill="#1e1e1e" d="M 1.57,-1.57 Q 1.57,-1.57 1.77,-1.27 1.98,-0.98 2.09,-0.64 2.20,-0.29 2.19,0.05 2.18,0.41 2.05,0.75 1.93,1.09 1.70,1.37 1.48,1.65 1.18,1.84 0.87,2.04 0.52,2.12 0.18,2.21 -0.17,2.18 -0.53,2.15 -0.86,2.01 -1.19,1.87 -1.46,1.63 -1.73,1.39 -1.90,1.07 -2.08,0.76 -2.15,0.41 -2.21,0.05 -2.17,-0.29 -2.12,-0.65 -1.96,-0.97 -1.80,-1.29 -1.54,-1.54 -1.29,-1.80 -0.97,-1.96 -0.65,-2.12 -0.29,-2.17 0.06,-2.21 0.41,-2.15 0.76,-2.08 1.07,-1.90 1.39,-1.73 1.63,-1.46 1.87,-1.19 2.01,-0.86 2.15,-0.53 2.18,-0.17 2.21,0.18 2.12,0.52 2.03,0.87 1.84,1.18 1.65,1.48 1.37,1.70 1.09,1.93 0.75,2.05 0.41,2.18 0.05,2.19 -0.30,2.20 -0.64,2.09 -0.98,1.98 -1.27,1.77 -1.57,1.56 -1.57,1.57 -1.57,1.57 -1.73,1.35 -1.90,1.14 -2.01,0.90 -2.12,0.66 -2.16,0.39 -2.21,0.13 -2.20,-0.13 -2.18,-0.40 -2.10,-0.65 -2.02,-0.91 -1.88,-1.14 -1.74,-1.36 -1.55,-1.55 -1.36,-1.74 -1.14,-1.88 -0.91,-2.02 -0.65,-2.10 -0.40,-2.18 -0.13,-2.20 0.13,-2.21 0.39,-2.16 0.66,-2.12 0.90,-2.01 1.14,-1.90 1.35,-1.73 1.57,-1.57 1.57,-1.57 L 1.57,-1.57 Z"></path>
  </g>
</svg>
